<svg xmlns="http://www.w3.org/2000/svg" xmlns:xlink="http://www.w3.org/1999/xlink" width="206" height="80" viewBox="0 0 206 80">
  <defs>
    <clipPath id="clip-path">
      <rect id="Rectangle_666" data-name="Rectangle 666" width="200.178" height="39.776" fill="none"/>
    </clipPath>
  </defs>
  <g id="Group_889" data-name="Group 889" transform="translate(1104 -1522)">
    <g id="Group_888" data-name="Group 888" transform="translate(-219)">
      <rect id="Rectangle_667" data-name="Rectangle 667" width="206" height="80" transform="translate(-885 1522)" fill="none"/>
      <g id="Group_887" data-name="Group 887" transform="translate(-1289.681 1344.146)">
        <path id="Path_1050" data-name="Path 1050" d="M556.807,203.7v35.608h-3.1l-22.891-28.894v28.894h-3.764V203.7h3.1L553.093,232.6V203.7Z" transform="translate(-39.483 -1.934)" fill="#040504"/>
        <g id="Group_886" data-name="Group 886" transform="translate(407.681 197.854)">
          <g id="Group_885" data-name="Group 885" clip-path="url(#clip-path)">
            <path id="Path_1051" data-name="Path 1051" d="M585.137,242.083a12.791,12.791,0,0,1-4.884-4.857,14.733,14.733,0,0,1,0-14.041,12.625,12.625,0,0,1,4.884-4.832,14.906,14.906,0,0,1,13.938,0,12.452,12.452,0,0,1,4.858,4.832,14.92,14.92,0,0,1,0,14.041,12.615,12.615,0,0,1-4.858,4.857,14.71,14.71,0,0,1-13.937,0m12.081-2.747a9.047,9.047,0,0,0,3.536-3.688,12.286,12.286,0,0,0,0-10.886,9.054,9.054,0,0,0-3.536-3.687,10.724,10.724,0,0,0-10.224,0,9.212,9.212,0,0,0-3.561,3.688,12.069,12.069,0,0,0,0,10.886,9.205,9.205,0,0,0,3.561,3.688,10.719,10.719,0,0,0,10.224,0" transform="translate(-464.173 -204.062)" fill="#040504"/>
            <path id="Path_1052" data-name="Path 1052" d="M640.628,239.166a6.851,6.851,0,0,1-2.518,1.4,10.167,10.167,0,0,1-3.128.483,7.087,7.087,0,0,1-7.833-7.783V217.089h-4.782v-3.052h4.782v-5.85h3.611v5.85H638.9v3.052H630.76v15.973a5.049,5.049,0,0,0,1.2,3.637,4.527,4.527,0,0,0,3.433,1.246,6.62,6.62,0,0,0,2.162-.356,5.347,5.347,0,0,0,1.806-1.017Z" transform="translate(-478.691 -201.272)" fill="#040504"/>
            <path id="Path_1053" data-name="Path 1053" d="M679.72,231.325H657.338a9.564,9.564,0,0,0,3.2,6.74,10.638,10.638,0,0,0,7.325,2.569,11.532,11.532,0,0,0,4.578-.891,9.987,9.987,0,0,0,3.612-2.619l2.034,2.34a11.453,11.453,0,0,1-4.451,3.255,15.049,15.049,0,0,1-5.875,1.119,14.853,14.853,0,0,1-7.3-1.755,12.64,12.64,0,0,1-4.96-4.857,13.846,13.846,0,0,1-1.781-7.02,14.328,14.328,0,0,1,1.7-7.02,12.349,12.349,0,0,1,4.68-4.833,13.068,13.068,0,0,1,6.689-1.729,12.934,12.934,0,0,1,6.664,1.729,12.269,12.269,0,0,1,4.629,4.807,14.476,14.476,0,0,1,1.678,7.045Zm-19.406-9.131a9.686,9.686,0,0,0-2.976,6.435h18.974a9.692,9.692,0,0,0-2.976-6.435,9.824,9.824,0,0,0-13.022,0" transform="translate(-489.064 -204.062)" fill="#040504"/>
            <path id="Path_1054" data-name="Path 1054" d="M413.925,238a18.888,18.888,0,0,1-6.245-2.934l2.759-6.119a18.693,18.693,0,0,0,5.367,2.658,20.116,20.116,0,0,0,6.219,1,9.932,9.932,0,0,0,5.116-1.028,3.1,3.1,0,0,0,1.655-2.733,2.611,2.611,0,0,0-.978-2.081,7.411,7.411,0,0,0-2.507-1.33q-1.531-.5-4.139-1.1a56.929,56.929,0,0,1-6.57-1.905,10.669,10.669,0,0,1-4.389-3.06,8.26,8.26,0,0,1-1.83-5.618,9.772,9.772,0,0,1,1.655-5.542,11.126,11.126,0,0,1,4.99-3.937,20.373,20.373,0,0,1,8.15-1.455,27.007,27.007,0,0,1,6.571.8,19.413,19.413,0,0,1,5.618,2.307l-2.508,6.169a19.587,19.587,0,0,0-9.731-2.759,9.118,9.118,0,0,0-5.04,1.1,3.367,3.367,0,0,0-1.63,2.909,2.844,2.844,0,0,0,1.881,2.683,29.472,29.472,0,0,0,5.743,1.731,57.338,57.338,0,0,1,6.571,1.906,10.888,10.888,0,0,1,4.389,3.009,8.074,8.074,0,0,1,1.83,5.567,9.586,9.586,0,0,1-1.68,5.492,11.292,11.292,0,0,1-5.041,3.937,20.556,20.556,0,0,1-8.175,1.454,28.724,28.724,0,0,1-8.05-1.128" transform="translate(-407.681 -199.494)" fill="#104da9"/>
            <path id="Path_1055" data-name="Path 1055" d="M463.091,241.258a13.323,13.323,0,0,1-5.367-4.94,14.287,14.287,0,0,1,0-14.344,13.328,13.328,0,0,1,5.367-4.94,16.6,16.6,0,0,1,7.749-1.781,15.025,15.025,0,0,1,7.449,1.781,10.568,10.568,0,0,1,4.639,5.091l-6.069,3.26a6.634,6.634,0,0,0-6.069-3.712,6.867,6.867,0,0,0-5.065,2.006,8.451,8.451,0,0,0,0,10.934,6.864,6.864,0,0,0,5.065,2.006,6.564,6.564,0,0,0,6.069-3.712l6.069,3.31a10.78,10.78,0,0,1-4.639,5.015,14.851,14.851,0,0,1-7.449,1.806,16.587,16.587,0,0,1-7.749-1.781" transform="translate(-423.595 -203.609)" fill="#104da9"/>
            <path id="Path_1056" data-name="Path 1056" d="M503.013,205.444a4.248,4.248,0,0,1,0-6.219,4.968,4.968,0,0,1,3.511-1.253,5.087,5.087,0,0,1,3.511,1.2,3.86,3.86,0,0,1,1.355,3.01,4.26,4.26,0,0,1-1.355,3.235,4.905,4.905,0,0,1-3.511,1.279,4.962,4.962,0,0,1-3.511-1.254m-.4,5.016h7.824v26.984h-7.824Z" transform="translate(-438.766 -197.893)" fill="#104da9"/>
            <path id="Path_1057" data-name="Path 1057" d="M683.387,197.854h13.77a1.9,1.9,0,0,1,1.9,1.9v13.7Z" transform="translate(-498.875 -197.854)" fill="#104da9"/>
          </g>
        </g>
      </g>
    </g>
  </g>
</svg>
